<svg id="Capa_1" enable-background="new 0 0 512.003 512.003" height="512" viewBox="0 0 512.003 512.003" width="512" xmlns="http://www.w3.org/2000/svg"><g><g><path d="m509.493 357.496c-3.562-8.929-10.42-15.938-19.312-19.736-7.615-3.252-15.582-5.59-23.681-6.949-17.64-2.959-34.972-7.737-51.597-14.172 3.5-40.518-3.038-81.109-19.268-118.633-1.644-3.8-6.055-5.551-9.861-3.906-3.802 1.645-5.551 6.06-3.906 9.861 9.397 21.727 15.276 44.233 17.774 66.821-15.588 3.267-37.704-.021-52.325-13.239-12.513-11.311-16.885-27.669-12.643-47.308 5.749-26.616-7.024-42.885-19.377-58.618-11.092-14.127-21.626-27.565-20.34-49.605 13.667 8.557 26.518 18.745 38.273 30.501 13.507 13.506 25.277 28.583 34.984 44.812 1.405 2.35 3.893 3.651 6.443 3.651 1.311 0 2.638-.343 3.843-1.064 3.555-2.126 4.713-6.731 2.587-10.286-10.34-17.287-22.873-33.342-37.25-47.72-30.634-30.633-69.042-51.901-111.075-61.508-39.247-8.97-80.109-7.51-118.512 4.179-11.336-18.552-27.55-33.684-47.051-43.592-17.809-9.049-33.546-11.296-46.773-6.686-15.851 5.525-24.252 22.916-18.728 38.768 2.388 6.848 5.599 13.364 9.545 19.368 19.683 29.953 31.778 64.653 34.979 100.351.641 7.157 2.177 14.258 4.563 21.105 2.676 7.678 8.183 13.854 15.505 17.393 4.193 2.025 8.694 3.046 13.218 3.046 3.376 0 6.764-.568 10.045-1.712 15.377-5.36 27.446-20.678 35.873-45.527 5.475-16.147 7.48-33.138 6.049-49.85 33.797-6.403 68.04 4.082 92.519 28.613 22.1 22.146 31.943 52.022 29.591 81.223-10.037-7.793-19.553-16.335-28.377-25.502-5.695-5.916-12.123-11.171-19.107-15.618-8.157-5.194-17.815-6.896-27.194-4.793-9.105 2.041-16.841 7.479-21.78 15.31-10.21 16.184-9.974 39.22.701 68.47 7.817 21.418 20.598 40.724 37.138 56.249-21.494 21.709-32.453 51.601-30.07 82.102.308 3.931 3.592 6.917 7.47 6.916.195 0 .394-.007.592-.022 4.13-.323 7.216-3.933 6.894-8.062-2.055-26.299 7.454-52.068 26.088-70.702l1.139-1.139c16.841 8.332 44.013 6.717 80.94-4.843 6.919-2.167 14.177-1.345 20.438 2.313 6.304 3.684 10.615 9.657 12.14 16.82 7.683 36.092 23.418 60.941 45.746 72.509-9.255 14.849-20.307 28.831-33.108 41.632-35.093 35.096-92.198 35.096-127.293.001-8.534-8.535-15.155-18.475-19.68-29.544-1.567-3.834-5.947-5.672-9.78-4.104-3.834 1.567-5.672 5.946-4.104 9.78 5.283 12.924 13.007 24.522 22.958 34.475 20.472 20.472 47.362 30.707 74.254 30.707 26.891 0 53.781-10.235 74.253-30.707 14.269-14.269 26.595-30.04 36.822-46.992 11.624 2.93 23.55 4.409 35.494 4.409 12.122 0 24.26-1.511 36.103-4.536 30.167-7.707 49.312-20.521 56.903-38.086 3.667-8.502 3.786-17.957.328-26.624zm-398.272-195.222c-4.721 13.919-13.168 31.496-26.605 36.18-3.895 1.357-8.085 1.118-11.801-.677-3.715-1.795-6.508-4.928-7.865-8.823-1.982-5.686-3.257-11.575-3.788-17.507-3.42-38.151-16.347-75.237-37.383-107.25-3.271-4.976-5.934-10.382-7.916-16.067-2.803-8.041 1.46-16.863 9.501-19.666 2.858-.996 5.961-1.493 9.302-1.493 7.441 0 16.059 2.469 25.739 7.388 45.806 23.271 67.651 78.262 50.816 127.915zm60.696 97.526c-9-24.659-9.708-43.272-2.105-55.324 2.796-4.433 7.19-7.514 12.375-8.676 5.459-1.224 11.089-.227 15.856 2.809 5.982 3.81 11.485 8.307 16.356 13.368 11.203 11.639 23.464 22.319 36.471 31.822-4.444 18.061-13.733 35.21-27.862 49.338l-17.439 17.439c-15-13.977-26.585-31.413-33.652-50.776zm163.347 81.652c-2.38-11.18-9.394-20.893-19.243-26.648-9.807-5.73-21.648-7.07-32.487-3.677-28.692 8.982-51.185 11.562-64.902 7.602l14.984-14.984c46.678-46.677 47.124-122.26.994-168.486-14.637-14.669-32.886-25.274-52.774-30.67-17.108-4.64-35.142-5.373-52.563-2.193-1.39-6.565-3.319-13.033-5.801-19.331-.661-1.676-1.358-3.332-2.089-4.969 54.165-15.744 110.952-9.613 159.344 15.754-4.695 32.036 9.868 50.594 22.772 67.031 11.607 14.783 20.775 26.46 16.514 46.188-5.362 24.825.763 46.702 17.246 61.603 12.989 11.741 32.146 18.345 50.564 18.344 4.4 0 8.757-.384 12.979-1.157 1.817 41.032-7.427 81.825-26.94 118.222-23.198-11.619-33.785-40.019-38.598-62.629zm160.125 36.715c-5.652 13.08-21.414 23.006-46.847 29.504-19.771 5.051-40.447 5.386-60.259 1.05 11.163-21.51 19.109-44.671 23.52-68.912.473-2.597.895-5.197 1.284-7.799 16.468 6.111 33.562 10.681 50.932 13.594 6.927 1.163 13.747 3.165 20.27 5.951 5.196 2.22 9.199 6.303 11.271 11.499 1.969 4.935 1.909 10.303-.171 15.113z"/><path d="m215.466 404.085c2.554 0 5.043-1.305 6.447-3.657l4.924-8.25c2.123-3.557.96-8.161-2.597-10.284-3.557-2.122-8.16-.961-10.284 2.597l-4.924 8.25c-2.123 3.557-.96 8.161 2.597 10.284 1.205.718 2.528 1.06 3.837 1.06z"/><path d="m301.336 455.333c2.554 0 5.043-1.305 6.447-3.657l4.924-8.25c2.123-3.557.96-8.161-2.597-10.284-3.557-2.121-8.16-.962-10.284 2.597l-4.924 8.25c-2.123 3.557-.96 8.161 2.597 10.284 1.205.718 2.528 1.06 3.837 1.06z"/><path d="m70.009 75.198c2.593 0 5.114-1.346 6.503-3.753 2.07-3.588.84-8.174-2.748-10.244l-20.398-11.77c-3.587-2.071-8.175-.842-10.244 2.748-2.07 3.588-.84 8.174 2.748 10.244l20.398 11.77c1.18.681 2.468 1.005 3.741 1.005z"/><path d="m85.198 135.053-10.126 21.263c-1.781 3.739-.193 8.215 3.547 9.996 1.041.496 2.139.73 3.22.73 2.802 0 5.491-1.578 6.776-4.277l10.126-21.263c1.781-3.739.193-8.215-3.547-9.996-3.739-1.781-8.216-.193-9.996 3.547z"/><path d="m85.289 101.649c-1.23-3.954-5.429-6.168-9.39-4.933l-8.594 2.674c-3.955 1.23-6.163 5.435-4.933 9.39 1 3.213 3.962 5.273 7.159 5.273.737 0 1.488-.109 2.23-.341l8.594-2.674c3.956-1.23 6.164-5.434 4.934-9.389z"/></g></g></svg>