<svg id="Capa_1" enable-background="new 0 0 512 512" height="512" viewBox="0 0 512 512" width="512" xmlns="http://www.w3.org/2000/svg"><g><path d="m484.5 483.515h-457c-15.164 0-27.5-12.336-27.5-27.5 0-8.964 6.775-16.375 15.473-17.383 2.054-15.921 10.657-29.816 23.013-38.891-9.285-13.452-16.929-35.27-16.929-46.788 0-17.014 14.176-34.237 41.271-34.237 4.142 0 7.5 3.358 7.5 7.5s-3.358 7.5-7.5 7.5c-18.05 0-26.271 9.972-26.271 19.237 0 9.058 7.5 29.31 15.147 39.534 6.418-2.488 13.392-3.853 20.678-3.853 21.339 0 39.995 11.709 49.881 29.04 9.886-17.331 28.542-29.04 49.881-29.04 20.675 0 38.833 10.993 48.934 27.439 8.317-15.525 24.376-23.788 47.178-23.788 4.143 0 7.5 3.358 7.5 7.5 0 16.622-4.392 29.661-12.786 38.73h54.567c-4.414-4.368-8.48-9.625-12.075-15.687-12.225-20.612-18.686-49.219-18.686-82.729 0-30.818 4.691-62.372 13.21-88.85 1.27-3.944 5.496-6.108 9.437-4.843 3.943 1.269 6.111 5.494 4.843 9.437-8.054 25.033-12.489 54.956-12.489 84.256 0 47.709 17.121 98.415 48.851 98.415h34.785c31.73 0 48.852-50.706 48.852-98.415 0-35.779-6.534-71.878-17.928-99.042-8.703-20.75-24.149-45.484-48.316-45.484-20.463 0-34.493 18.231-42.66 33.526-1.951 3.653-6.491 5.036-10.149 3.083-3.653-1.951-5.034-6.495-3.083-10.148 5.54-10.374 11.788-18.877 18.628-25.424-36.906 2.158-68.238 7.696-94.586 16.725l11.093 11.093 2.697-2.696c2.929-2.928 7.678-2.929 10.607 0s2.929 7.678 0 10.606l-2.697 2.697 19.067 19.066c2.929 2.929 2.929 7.678 0 10.606-2.93 2.929-7.678 2.929-10.607 0l-19.066-19.066-32.116 32.116 32.117 32.116 9.066-9.066c2.928-2.929 7.677-2.929 10.607 0 2.929 2.929 2.929 7.678 0 10.606l-9.067 9.067 13.082 13.081c2.929 2.929 2.929 7.678 0 10.606-2.93 2.928-7.678 2.929-10.607 0l-13.081-13.081-14.601 14.6c-2.929 2.929-7.678 2.929-10.606 0-2.929-2.929-2.929-7.678 0-10.606l14.6-14.601-32.116-32.116-32.117 32.117 19.066 19.066c2.929 2.929 2.929 7.678 0 10.606-2.929 2.929-7.678 2.929-10.606 0l-19.066-19.066-31.081 31.081c-2.929 2.929-7.678 2.929-10.606 0-2.929-2.929-2.929-7.678 0-10.606l31.081-31.081-21.165-21.165c-9.76 11.748-20.235 22.026-34.482 28.184-3.802 1.643-8.216-.108-9.86-3.91-1.643-3.802.107-8.217 3.91-9.86 15.861-6.854 26.603-20.737 39.041-36.813 6.995-9.041 14.563-18.823 23.918-28.572-23.961-5.438-36.926-23.421-36.926-51.981 0-4.142 3.358-7.5 7.5-7.5 29.406 0 47.6 13.746 52.432 39.086 34.839-25.965 90.232-47.376 192.442-47.376 25.654 0 47.145 18.909 62.149 54.682 12.135 28.932 19.095 67.146 19.095 104.844 0 17.761-1.815 34.147-5.342 48.693 27.184 2.023 49.153 23.07 52.606 49.838 8.698 1.008 15.473 8.419 15.473 17.383-.005 15.166-12.341 27.502-27.505 27.502zm-467-30c-1.378 0-2.5 1.122-2.5 2.5 0 6.893 5.607 12.5 12.5 12.5h457c6.893 0 12.5-5.607 12.5-12.5 0-1.378-1.121-2.5-2.5-2.5h-309.667c-4.142 0-7.5-3.358-7.5-7.5s3.358-7.5 7.5-7.5h29.027c-3.551-19.804-20.906-34.881-41.716-34.881s-38.166 15.077-41.717 34.881h24.406c4.142 0 7.5 3.358 7.5 7.5s-3.358 7.5-7.5 7.5zm401.002-15h62.834c-3.552-19.804-20.907-34.881-41.717-34.881-.04 0-.08 0-.12 0-2.509 6.984-5.487 13.404-8.922 19.195-3.595 6.061-7.662 11.318-12.075 15.686zm-387.837 0h83.433c-3.551-19.804-20.906-34.881-41.716-34.881-20.811 0-38.166 15.077-41.717 34.881zm229.675-30.814c-18.491 2.069-28.331 11.908-30.4 30.399 18.491-2.07 28.33-11.908 30.4-30.399zm-120.906-120.207 22.381 22.381 32.117-32.117-24.779-24.779c-11.542 11.022-20.385 22.452-28.637 33.118-.362.467-.722.932-1.082 1.397zm41.037-44.409 24.067 24.067 32.116-32.116-15.815-15.814c-5.121 2.195-10.031 4.547-14.728 7.053-9.807 5.234-18.235 10.904-25.64 16.81zm-49.411-38.805c2.069 18.491 11.908 28.33 30.399 30.399-2.07-18.491-11.909-28.33-30.399-30.399zm236.959 173.794c-12.617 0-22.5-13.178-22.5-30s9.883-30 22.5-30 22.5 13.178 22.5 30-9.883 30-22.5 30zm0-45c-3.058 0-7.5 5.843-7.5 15s4.442 15 7.5 15 7.5-5.843 7.5-15-4.443-15-7.5-15zm-18.019-167.5c-1.92 0-3.839-.732-5.304-2.197-23.102-23.103-23.102-48.549 0-71.651 17.206-17.206 17.206-33.233 0-50.438-2.929-2.929-2.929-7.678 0-10.606 2.93-2.929 7.678-2.929 10.607 0 23.103 23.103 23.103 48.549 0 71.651-17.206 17.206-17.206 33.232 0 50.438 2.929 2.929 2.929 7.678 0 10.606-1.464 1.465-3.384 2.197-5.303 2.197zm-90 0c-1.92 0-3.839-.732-5.303-2.197-23.103-23.103-23.103-48.549 0-71.651 17.206-17.206 17.206-33.233 0-50.438-2.929-2.929-2.929-7.678 0-10.606 2.928-2.929 7.677-2.929 10.607 0 23.103 23.103 23.103 48.549 0 71.651-17.206 17.206-17.206 33.232 0 50.438 2.929 2.929 2.929 7.678 0 10.606-1.465 1.465-3.385 2.197-5.304 2.197zm-90 0c-1.919 0-3.839-.732-5.303-2.197-23.103-23.103-23.103-48.549 0-71.651 17.206-17.206 17.206-33.233 0-50.438-2.929-2.929-2.929-7.678 0-10.606 2.929-2.929 7.678-2.929 10.606 0 23.103 23.103 23.103 48.549 0 71.651-17.205 17.206-17.205 33.232 0 50.438 2.929 2.929 2.929 7.678 0 10.606-1.464 1.465-3.384 2.197-5.303 2.197z"/></g></svg>