<svg id="Capa_1" enable-background="new 0 0 512 512" height="512" viewBox="0 0 512 512" width="512" xmlns="http://www.w3.org/2000/svg"><g><path d="m489.972 436.595h-5.891c.059-1.317.099-2.635.099-3.95 0-29.287-14.285-55.296-36.25-71.438 10.942-4.599 18.645-15.426 18.645-28.019 0-4.143-3.357-7.5-7.5-7.5s-7.5 3.357-7.5 7.5c0 8.479-6.899 15.379-15.379 15.379h-4.67c.421-3.006.641-6.046.641-9.097 0-10.433-2.415-20.418-7.178-29.679-1.896-3.685-6.418-5.135-10.101-3.239-3.684 1.895-5.134 6.417-3.239 10.101 3.661 7.117 5.518 14.795 5.518 22.817 0 2.385-.188 4.759-.521 7.105-5.432-1.33-11.058-2.162-16.828-2.435.522-2.48.803-5.015.803-7.564 0-20.228-16.456-36.684-36.683-36.684-9.961 0-19.06 3.971-25.705 10.487-.649-3.272-1.621-6.43-2.892-9.432 8.947-7.406 20.154-11.46 31.843-11.46 7.959 0 15.581 1.828 22.655 5.435 3.69 1.883 8.206.416 10.088-3.275 1.882-3.69.415-8.207-3.275-10.088-9.204-4.692-19.118-7.071-29.468-7.071-14.522 0-28.469 4.82-39.831 13.65-4.221-4.892-9.394-8.937-15.235-11.841l.023-.065c5.809-16.026 1.973-33.982-9.475-46.265l17.434-48.122c4.761-2.888 8.376-7.271 10.3-12.582l46.174-127.476c2.23-6.156 1.93-12.813-.847-18.744-2.776-5.93-7.696-10.424-13.853-12.654-6.158-2.229-12.814-1.93-18.744.848-5.93 2.776-10.424 7.696-12.654 13.853l-22.558 62.276c-1.41 3.895.603 8.195 4.497 9.606s8.195-.602 9.606-4.497l22.558-62.277c.865-2.39 2.609-4.299 4.911-5.376 2.303-1.078 4.886-1.193 7.274-.329 2.39.865 4.299 2.609 5.377 4.911 1.077 2.302 1.194 4.885.328 7.274l-46.174 127.477c-.865 2.39-2.609 4.299-4.911 5.377-2.301 1.077-4.885 1.194-7.275.328-2.39-.865-4.299-2.609-5.376-4.91-1.077-2.302-1.194-4.885-.328-7.275l11.605-32.041c1.41-3.895-.604-8.194-4.498-9.605-3.895-1.412-8.194.604-9.605 4.498l-11.605 32.04c-1.925 5.314-1.96 11.001-.149 16.272l-17.429 48.109c-16.654 2.102-31.098 13.438-36.905 29.475l-6.677 18.433c-11.101-4.874-23.179-7.459-35.606-7.459-2.311 0-4.627.1-6.931.278v-3.339c0-8.339 6.784-15.123 15.123-15.123 4.143 0 7.5-3.357 7.5-7.5s-3.357-7.5-7.5-7.5c-14.93 0-27.351 10.919-29.712 25.19-17.889-12.115-41.418-15.091-62.62-5.784-15.894 6.977-28.121 19.724-34.429 35.896-5.705 14.626-5.93 30.463-.769 45.107h-.052c-8.12 0-14.726-6.605-14.726-14.726 0-4.143-3.357-7.5-7.5-7.5s-7.5 3.357-7.5 7.5c0 12.111 7.285 22.547 17.7 27.175-21.227 16.203-34.951 41.76-34.951 70.465 0 10.018 1.644 19.755 4.889 29.06h-4.031c-12.145-.001-22.027 9.881-22.027 22.027v3.834c0 22.405 18.228 40.633 40.633 40.633h92.611c4.143 0 7.5-3.357 7.5-7.5s-3.357-7.5-7.5-7.5h-92.611c-14.134 0-25.633-11.499-25.633-25.633v-3.834c0-3.875 3.153-7.028 7.028-7.028h467.943c3.875 0 7.028 3.153 7.028 7.028v3.834c0 14.134-11.499 25.633-25.633 25.633h-302.727c-4.143 0-7.5 3.357-7.5 7.5s3.357 7.5 7.5 7.5h302.729c22.405 0 40.633-18.228 40.633-40.633v-3.834c-.001-12.146-9.883-22.028-22.029-22.028zm-20.792-3.951c0 1.316-.041 2.635-.112 3.95h-14.676c.088-1.316.148-2.634.148-3.95 0-32.516-26.454-58.97-58.97-58.97-11.011 0-21.556 3.006-30.713 8.613-.581-5.135-1.593-10.172-3.037-15.065 10.379-5.363 21.958-8.188 33.75-8.188 40.588.001 73.61 33.023 73.61 73.61zm-44.37 3.951c.173-1.298.271-2.615.271-3.95 0-16.271-13.238-29.51-29.51-29.51-16.267 0-29.5 13.238-29.5 29.51 0 1.335.098 2.651.27 3.95h-12.683c6.314-10.911 10.165-22.947 11.368-35.563 8.238-7.969 19.05-12.357 30.544-12.357 24.245 0 43.97 19.725 43.97 43.97 0 1.316-.062 2.636-.179 3.95zm-43.177 0c-.36-1.27-.563-2.587-.563-3.95 0-8.001 6.505-14.51 14.5-14.51 8.001 0 14.51 6.509 14.51 14.51 0 1.366-.204 2.683-.565 3.95zm-65.784 0c2.861-2.517 5.494-5.315 7.842-8.383 9.056-3.613 15.475-12.466 15.475-22.796v-52.167c7.337 11.625 11.284 25.094 11.284 39.176 0 16.109-5.106 31.352-14.754 44.17zm-99.741 0c-3.283-12.777-14.992-22.2-28.568-22.2-13.582 0-25.294 9.423-28.578 22.2h-14.787c3.45-20.97 21.494-36.67 43.365-36.67 21.866 0 39.906 15.7 43.354 36.67zm-16.068 0h-25.009c2.538-4.306 7.233-7.2 12.509-7.2 5.272-.001 9.963 2.893 12.5 7.2zm-12.5-51.67c-30.187 0-54.943 22.305-58.517 51.67h-14.708c3.703-37.046 35.414-66.31 73.226-66.31 37.807 0 69.513 29.263 73.216 66.31h-14.709c-3.574-29.365-28.326-51.67-58.508-51.67zm-110.745 51.67c-7.083-8.031-10.985-18.323-10.985-29.06 0-24.245 19.725-43.97 43.97-43.97 9.462 0 18.444 2.967 25.921 8.45-3.569 2.583-6.972 5.442-10.174 8.579-.422.413-.819.845-1.231 1.266-4.404-2.484-9.415-3.826-14.512-3.826-16.269 0-29.505 13.235-29.505 29.504 0 12.387 7.803 23.343 19.102 27.608-.047.483-.097.965-.136 1.449zm25.42-16.682c-4.199-2.581-6.936-7.227-6.936-12.376 0-7.997 6.507-14.504 14.505-14.504 1.606 0 3.163.261 4.638.758-5.5 7.997-9.604 16.811-12.207 26.122zm73.725-71.322c4.967-5.069 8.986-10.847 11.998-17.068 7.471.207 13.535 6.079 14.05 13.469-2.175 3.426-4.117 7.001-5.806 10.708-2.855-.275-5.739-.416-8.642-.416-2.021 0-4.027.092-6.025.226-1.751-2.411-3.613-4.718-5.575-6.919zm114.15 49.81c-2.455 4.999-7.676 8.524-13.25 8.524-4.958 0-9.34-2.505-11.956-6.313-.316-.563-.652-1.116-.98-1.673-.992-1.961-1.564-4.17-1.564-6.514 0-7.995 6.505-14.5 14.5-14.5 5.574 0 10.795 3.525 13.25 8.524zm-16.757 23.308c1.151.137 2.32.216 3.507.216 5.919 0 11.505-1.736 16.212-4.83 2.388 4.394 6.082 7.975 10.553 10.234-7.573 5.843-16.874 9.067-26.765 9.067-.344 0-.69-.026-1.036-.034-.418-4.983-1.245-9.88-2.471-14.653zm-4.315-72.555c2.571-.46 5.192-.701 7.822-.701 4.54 0 8.982.693 13.25 2.042v15.553c-4.022-2.013-8.529-3.123-13.25-3.123-12.137 0-22.582 7.369-27.104 17.866-.065-.064-.126-.133-.191-.197-3.521-3.45-7.294-6.551-11.257-9.33 1.458-2.654 3.191-5.141 5.174-7.448.989.122 1.993.192 3.015.192 10.091 0 18.777-6.126 22.541-14.854zm2.685-15.455c1.41-3.509 4.841-5.996 8.849-5.996 4.447 0 8.182 3.063 9.233 7.188-4.224-.948-8.551-1.438-12.945-1.438-1.717 0-3.43.098-5.137.246zm-49.495 9.4c.82 5.508 3.48 10.42 7.329 14.099-1.549 2.075-2.946 4.254-4.208 6.517-4.463-2.107-9.1-3.819-13.863-5.148 2.903-5.595 6.515-10.792 10.742-15.468zm-.27-23.251v3.033c-3.19 2.521-6.193 5.247-8.991 8.158-4.259-7.202-11.487-12.442-19.99-14.028 1.032-4.722 1.549-9.559 1.514-14.422 10.834 1.706 20.583 7.38 27.497 16.093-.01.388-.03.774-.03 1.166zm142-4.956c11.956 0 21.683 9.728 21.683 21.684 0 2.828-.559 5.627-1.619 8.219-9.632 1.264-18.989 4.103-27.683 8.402-3.593-7.263-8.186-14.063-13.747-20.201 1.719-10.395 10.695-18.104 21.366-18.104zm-39.772 4.956v85.568c0 5.26-4.278 9.538-9.538 9.538s-9.538-4.278-9.538-9.538v-68.175c0-13.53-11.008-24.538-24.538-24.538s-24.538 11.008-24.538 24.538v2.229c0 5.26-4.278 9.538-9.538 9.538s-9.538-4.278-9.538-9.538v-19.622c0-18.535 15.079-33.614 33.614-33.614h20c18.535-.001 33.614 15.078 33.614 33.614zm-80.244-68.32c4.292-11.849 15.638-19.86 28.232-19.934 3.141-.019 5.938-1.992 7.008-4.945l16.097-44.431c1.19.672 2.431 1.27 3.742 1.745 1.31.475 2.644.828 3.988 1.074l-16.09 44.414c-1.069 2.953-.186 6.26 2.214 8.286 9.63 8.128 13.217 21.544 8.926 33.385l-.237.655c-2.366-.355-4.786-.543-7.249-.543h-2.205l1.727-4.767c1.41-3.895-.603-8.195-4.497-9.606-3.899-1.411-8.195.604-9.606 4.497l-3.578 9.876h-1.84c-2.877 0-5.692.266-8.434.747l5.008-13.827c1.41-3.895-.604-8.195-4.498-9.605-3.887-1.41-8.193.603-9.605 4.498l-8.962 24.745c-2.444-2.029-4.98-3.918-7.601-5.659zm-10.47 36.953c-3.174 3.749-5.798 7.977-7.73 12.568-9.289-7.924-20.816-12.766-33.197-13.798-.871-3.465-2.037-6.89-3.507-10.241-.693-1.58-1.459-3.105-2.26-4.601.259-.003.519-.013.778-.013 16.834-.001 32.907 5.677 45.916 16.085zm-150.511-3.517c4.852-12.438 14.257-22.244 26.483-27.611 25.232-11.077 54.778.445 65.857 25.686 8.29 18.894 4.012 40.852-10.236 55.239-3.612-2.882-7.433-5.475-11.431-7.751 14.166-9.785 19.905-28.578 12.735-44.913-8.12-18.521-29.804-26.981-48.334-18.855-8.974 3.938-15.875 11.135-19.434 20.263s-3.349 19.097.588 28.063c.647 1.478 1.406 2.881 2.224 4.24-6.133.579-12.086 1.781-17.794 3.549-5.224-12.137-5.466-25.584-.658-37.91zm40.281 34.986c-4.216-2.317-8.383-6.478-10.314-10.889-2.328-5.305-2.452-11.196-.35-16.592 2.104-5.395 6.183-9.647 11.483-11.975 10.959-4.803 23.771.197 28.572 11.146 4.805 10.946-.191 23.762-11.141 28.569-2.24.984-5.637 1.747-8.026 1.937-3.349-.929-6.762-1.666-10.224-2.196zm-87.052 87.585c0-40.589 33.021-73.61 73.61-73.61 21.029 0 40.863 8.976 54.735 24.396-5.2 1.391-10.251 3.244-15.098 5.557-10.87-9.895-24.819-15.312-39.637-15.312-32.516 0-58.97 26.454-58.97 58.97 0 10.286 2.674 20.266 7.661 29.06h-16.298c-3.968-9.191-6.003-18.948-6.003-29.061z"/></g></svg>