<?xml version="1.0" encoding="iso-8859-1"?>
<!-- Generator: Adobe Illustrator 19.0.0, SVG Export Plug-In . SVG Version: 6.00 Build 0)  -->
<svg version="1.1" id="Capa_1" xmlns="http://www.w3.org/2000/svg" xmlns:xlink="http://www.w3.org/1999/xlink" x="0px" y="0px"
	 viewBox="0 0 511.998 511.998" style="enable-background:new 0 0 511.998 511.998;" xml:space="preserve">
<g>
	<g>
		<path d="M76.552,303.132h-0.287c-5.523,0-10,4.477-10,10s4.477,10,10,10h0.287c5.523,0,10-4.477,10-10
			S82.075,303.132,76.552,303.132z"/>
	</g>
</g>
<g>
	<g>
		<path d="M97.968,411.115h-0.287c-5.523,0-10,4.477-10,10s4.477,10,10,10h0.287c5.523,0,10-4.477,10-10
			S103.491,411.115,97.968,411.115z"/>
	</g>
</g>
<g>
	<g>
		<path d="M282.218,406.615h-0.287c-5.523,0-10,4.477-10,10s4.477,10,10,10h0.287c5.523,0,10-4.477,10-10
			S287.741,406.615,282.218,406.615z"/>
	</g>
</g>
<g>
	<g>
		<path d="M199.718,391.866h-0.287c-5.523,0-10,4.477-10,10s4.477,10,10,10h0.287c5.523,0,10-4.477,10-10
			S205.241,391.866,199.718,391.866z"/>
	</g>
</g>
<g>
	<g>
		<path d="M489.916,129.486c-0.645-0.71-1.312-1.445-1.96-2.17c7.46-9.368,16.178-23.482,19.282-28.612
			c1.569-2.592,1.878-5.756,0.84-8.603c-1.038-2.847-3.311-5.069-6.18-6.044c-5.308-1.803-11.544-2.716-18.534-2.716
			c-15.367,0-31.999,4.331-43.128,9.491c-19.862-19.449-54.253-31.567-91.801-38.227c-0.723-0.21-1.47-0.346-2.235-0.388
			c-25.311-4.33-51.947-6.214-76.46-6.214c-0.423,0-0.85,0.003-1.275,0.004c-0.223-0.007-0.444-0.005-0.665,0.002
			c-65.665,0.259-146.143,13.716-177.347,50.834c-10.403,12.374-14.514,26.875-11.887,41.936c0.345,1.977,0.824,3.881,1.409,5.727
			v0.001c2.057,6.49,5.604,12.167,10.602,17.02c-2.042,7.538-3.147,15.51-3.147,23.051c0,24.471,10.433,47.239,27.919,63.209
			c-43.161,7.165-82.868,21.194-102.69,44.773C2.255,304.935-1.855,319.437,0.772,334.497c0.344,1.975,0.823,3.878,1.408,5.724
			c0.001,0.002,0.002,0.005,0.002,0.007c2.057,6.489,5.604,12.165,10.601,17.018c-2.041,7.538-3.147,15.51-3.147,23.051
			c0,47.254,38.444,85.698,85.698,85.698h189.273c47.254,0,85.698-38.444,85.698-85.698c0-3.673-0.241-7.393-0.688-11.072
			c14.803,10.222,31.361,14.781,52.449,14.781c0.647,0,1.297-0.004,1.954-0.013c4.962-0.065,9.126-3.759,9.781-8.678
			c3.048-22.871-11.832-39.264-21.679-50.111c-0.645-0.711-1.312-1.445-1.961-2.17c7.46-9.368,16.177-23.481,19.282-28.611
			c1.569-2.592,1.877-5.756,0.84-8.603c-1.038-2.847-3.31-5.069-6.179-6.044c-5.308-1.803-11.544-2.717-18.535-2.717
			c-15.367,0-31.999,4.331-43.128,9.492c-6.265-6.134-13.976-11.539-22.774-16.273h22.734c47.253,0,85.697-38.444,85.697-85.698
			c0-3.674-0.241-7.394-0.688-11.073c14.803,10.223,31.361,14.783,52.449,14.783c0.647,0,1.297-0.004,1.954-0.013
			c4.962-0.065,9.125-3.759,9.781-8.678C514.642,156.727,499.762,140.334,489.916,129.486z M337.645,71.033
			c6.65,25.416,12.745,56.04-5.118,90.86c-10.5-0.575-20.757-1.353-30.337-2.082c-7.507-0.571-14.449-1.099-20.653-1.46
			c6.293-25.429,2.648-47.574-0.631-67.442c-1.439-8.723-2.816-17.097-3.089-24.831C298.795,66.421,318.976,68.103,337.645,71.033z
			 M201.497,71.019c17.516-2.706,36.491-4.384,56.305-4.867c0.26,9.118,1.781,18.376,3.372,28.012
			c3.291,19.942,6.676,40.509-0.271,63.847c-7.786,0.295-17.137,1.007-27.577,1.802c-6.988,0.532-14.334,1.091-21.871,1.578
			C193.099,126.383,195.428,96.339,201.497,71.019z M100.91,142.408c5.028-5.883,16.372-12.327,27.087-13.424
			c5.494-0.563,9.492-5.473,8.929-10.967c-0.563-5.495-5.476-9.496-10.967-8.929c-8.666,0.888-17.593,4.014-25.329,8.449
			c1.278-2.666,2.982-5.269,5.13-7.825c12.555-14.933,39.446-27.065,74.377-34.726c-4.995,25.153-5.649,54.213,9.576,87.508
			c-5.095,0.172-10.206,0.272-15.286,0.272C133.653,162.766,109.007,155.921,100.91,142.408z M23.116,338.126
			c5.028-5.883,16.373-12.326,27.087-13.424c5.494-0.563,9.492-5.473,8.929-10.967s-5.476-9.498-10.967-8.929
			c-8.666,0.888-17.592,4.014-25.327,8.449c1.277-2.666,2.981-5.269,5.13-7.825c12.554-14.933,39.443-27.066,74.375-34.726
			c-4.996,25.153-5.649,54.212,9.576,87.509c-5.095,0.172-10.206,0.272-15.286,0.272C55.859,358.485,31.213,351.64,23.116,338.126z
			 M284.607,445.995H95.334c-36.226,0-65.698-29.472-65.698-65.698c0-3.728,0.37-7.682,1.063-11.598
			c1.904,0.808,3.871,1.58,5.951,2.284c14.904,5.048,34.525,7.502,59.984,7.502c20.874,0,41.881-1.6,60.416-3.012
			c13.313-1.014,24.81-1.89,32.921-1.89c0.111,0,0.23,0.002,0.343,0.002c0.013,0,0.026,0.002,0.039,0.002
			c0.011,0,0.021-0.001,0.032-0.001c8.083,0.028,19.408,0.889,32.495,1.884c18.527,1.41,39.525,3.008,60.388,3.008
			c28.897,0,50.537-3.158,66.076-9.781c0.624,3.832,0.963,7.778,0.963,11.599C350.305,416.523,320.833,445.995,284.607,445.995z
			 M123.704,266.737c6.754-1.044,13.724-1.935,20.876-2.663c0.103-0.013,0.209-0.016,0.313-0.032
			c11.301-1.143,23.052-1.879,35.114-2.173c0.26,9.118,1.781,18.376,3.372,28.013c3.291,19.942,6.676,40.509-0.271,63.847
			c-7.786,0.296-17.137,1.007-27.577,1.802c-6.986,0.532-14.332,1.091-21.869,1.578
			C115.304,322.099,117.634,292.055,123.704,266.737z M203.112,286.627c-1.439-8.723-2.816-17.097-3.089-24.832
			c20.979,0.342,41.16,2.025,59.828,4.955c6.649,25.416,12.744,56.04-5.119,90.861c-10.501-0.575-20.756-1.353-30.336-2.082
			c-7.507-0.571-14.448-1.099-20.653-1.46C210.036,328.64,206.391,306.495,203.112,286.627z M352.536,305.351
			c3.305,4.159,9.283,5.008,13.616,1.935c5.71-4.052,22.262-9.858,37.936-10.21c-5.589,8.447-10.955,15.818-13.195,17.61
			c-3.754,3.003-4.841,8.253-2.586,12.499c1.97,3.71,5.23,7.302,9.006,11.462c6.355,7,13.908,15.323,16.19,25.036
			c-18.489-1.476-31.945-8.072-44.996-21.693c-1.887-1.969-4.495-3.082-7.221-3.082c-0.021,0-0.042,0-0.063,0
			c-2.748,0.017-5.368,1.165-7.244,3.173c-10.167,10.881-33.958,16.399-70.713,16.399c-2.263,0-4.533-0.022-6.804-0.06
			c14.427-33.47,10.757-63.253,5.031-87.558c3.255,0.736,6.457,1.506,9.579,2.327C320.767,280.997,342.021,292.119,352.536,305.351z
			 M362.402,250.277h-81.614c-3.347-0.696-6.727-1.346-10.134-1.951c-0.732-0.215-1.489-0.352-2.265-0.394
			c-25.307-4.328-51.937-6.211-76.445-6.211c-0.425,0-0.854,0.003-1.28,0.004c-0.215-0.007-0.429-0.004-0.642,0.002
			c-14.491,0.057-29.702,0.757-44.947,2.211c-22.952-10.916-37.646-33.948-37.646-59.36c0-3.728,0.371-7.682,1.063-11.597
			c1.904,0.808,3.872,1.579,5.951,2.283c14.903,5.048,34.524,7.502,59.984,7.502c20.874,0,41.882-1.6,60.417-3.012
			c13.313-1.014,24.811-1.89,32.921-1.89c0.111,0,0.23,0.002,0.342,0.002c0.013,0,0.026,0.002,0.039,0.002
			c0.011,0,0.022-0.001,0.033-0.001c8.083,0.028,19.407,0.889,32.494,1.884c18.527,1.41,39.525,3.008,60.388,3.008
			c28.896,0,50.536-3.158,66.076-9.781c0.624,3.833,0.963,7.779,0.963,11.599C428.099,220.805,398.627,250.277,362.402,250.277z
			 M446.301,146.27c-1.887-1.969-4.495-3.081-7.22-3.081c-0.021,0-0.042,0-0.063,0c-2.748,0.017-5.368,1.165-7.244,3.173
			c-10.167,10.881-33.957,16.399-70.713,16.399c-2.263,0-4.533-0.022-6.804-0.059c14.426-33.469,10.756-63.252,5.03-87.558
			c3.255,0.735,6.457,1.506,9.579,2.327c29.695,7.809,50.949,18.93,61.464,32.163c3.304,4.159,9.284,5.008,13.615,1.935
			c5.711-4.052,22.264-9.858,37.937-10.21c-5.589,8.446-10.954,15.817-13.195,17.609c-3.755,3.002-4.841,8.252-2.586,12.499
			c1.97,3.71,5.23,7.303,9.007,11.462c6.354,7.001,13.908,15.323,16.19,25.036C472.808,166.488,459.353,159.892,446.301,146.27z"/>
	</g>
</g>
<g>
	<g>
		<path d="M154.346,107.415h-0.287c-5.523,0-10,4.477-10,10s4.477,10,10,10h0.287c5.523,0,10-4.477,10-10
			S159.869,107.415,154.346,107.415z"/>
	</g>
</g>
<g>
	<g>
		<path d="M175.761,215.398h-0.287c-5.523,0-10,4.477-10,10c0,5.523,4.477,10,10,10h0.287c5.523,0,10-4.477,10-10
			C185.761,219.875,181.284,215.398,175.761,215.398z"/>
	</g>
</g>
<g>
	<g>
		<path d="M360.012,210.898h-0.287c-5.523,0-10,4.477-10,10c0,5.523,4.477,10,10,10h0.287c5.523,0,10-4.477,10-10
			C370.012,215.375,365.535,210.898,360.012,210.898z"/>
	</g>
</g>
<g>
	<g>
		<path d="M277.512,196.148h-0.287c-5.523,0-10,4.477-10,10c0,5.523,4.477,10,10,10h0.287c5.523,0,10-4.477,10-10
			C287.512,200.625,283.035,196.148,277.512,196.148z"/>
	</g>
</g>
<g>
</g>
<g>
</g>
<g>
</g>
<g>
</g>
<g>
</g>
<g>
</g>
<g>
</g>
<g>
</g>
<g>
</g>
<g>
</g>
<g>
</g>
<g>
</g>
<g>
</g>
<g>
</g>
<g>
</g>
</svg>
